<?xml version="1.0" standalone="no"?>
<!DOCTYPE svg PUBLIC "-//W3C//DTD SVG 20010904//EN"
 "http://www.w3.org/TR/2001/REC-SVG-20010904/DTD/svg10.dtd">
<svg version="1.0" xmlns="http://www.w3.org/2000/svg"
 width="16.000000pt" height="16.000000pt" viewBox="0 0 16.000000 16.000000"
 preserveAspectRatio="xMidYMid meet">
<metadata>
Created by potrace 1.10, written by Peter Selinger 2001-2011
</metadata>
<g transform="translate(0.000000,16.000000) scale(0.100000,-0.100000)"
fill="#000000" stroke="none">
<path d="M95 124 c-10 -8 -26 -14 -35 -14 -26 0 -53 -35 -45 -59 5 -17 14 -21
43 -20 24 1 29 3 14 6 -12 2 -19 9 -16 15 4 6 0 14 -7 19 -11 7 -11 9 -1 9 7
0 15 -7 18 -15 4 -8 12 -15 20 -15 8 0 14 -4 14 -10 0 -5 10 -9 23 -9 17 1 18
2 4 6 -10 3 -16 10 -13 16 3 7 9 20 12 30 4 9 10 17 15 17 16 0 10 19 -9 29
-12 6 -23 5 -37 -5z"/>
</g>
</svg>
