<?xml version="1.0" encoding="utf-8"?>
<!-- Uploaded to: SVG Repo, www.svgrepo.com, Generator: SVG Repo Mixer Tools -->
<svg width="800px" height="800px" viewBox="-114.51 0 489.039 489.039" xmlns="http://www.w3.org/2000/svg"><defs><style>.a{fill:#ffffff;}.b{fill:#7a7473;}.c{fill:#211715;}.d{fill:#645d5c;}.e{fill:#6dbf6b;}</style></defs><path class="a" d="M56.371,223.187c-9.769-2.5-20.346-4.3-30.382-4.053,0-21.358-9.728-61.113-23.982-79.583C13.266,119.805,19.315,79.14,17.856,53.643c32.7-8.5,58.63-29.576,73.977-51.682,22.685,9.843,72.974,13.648,103.592,9.013,9.9,29.321,46.034,64.958,62.576,70.48-12.095,17.9-10.853,70.2-4.594,91.705-13.219,4.755-37.783,35.242-44.678,58.627,0,0-30.62-2.609-78.593-5.008C76.8,224.112,56.371,223.187,56.371,223.187Z"/><path class="a" d="M135.712,156.977a41.562,41.562,0,0,1-.377-5.235c6-3.558,10.665-11.433,11.54-13.806.144-.438.438-1.263.7-2.241l.546-.085a6.856,6.856,0,0,0,3.187-1.436,10.346,10.346,0,0,0,2.672-3.508,16.262,16.262,0,0,0,1.659-8.621,5.432,5.432,0,0,0-.569-2.183,3.836,3.836,0,0,0-2.759-1.835,4.066,4.066,0,0,0-3.253.952s-.53-22.653-28.3-22.653S94.5,118.979,94.5,118.979a4.066,4.066,0,0,0-3.253-.952,3.836,3.836,0,0,0-2.759,1.835,5.432,5.432,0,0,0-.569,2.183,16.262,16.262,0,0,0,1.659,8.621,10.334,10.334,0,0,0,2.672,3.508,6.856,6.856,0,0,0,3.187,1.436l1.039.159a27.651,27.651,0,0,0,5.271,10.289,25.144,25.144,0,0,0,6.318,5.542,40.164,40.164,0,0,1-.323,4.987s-3.385,19.376,12.911,19.376S135.712,156.977,135.712,156.977Z"/><path class="a" d="M149.057,118.979a4.066,4.066,0,0,1,3.253-.952,3.836,3.836,0,0,1,2.759,1.835,5.432,5.432,0,0,1,.569,2.183,16.262,16.262,0,0,1-1.659,8.621,10.346,10.346,0,0,1-2.672,3.508,6.856,6.856,0,0,1-3.187,1.436l-.546.085c-.261.978-.555,1.8-.7,2.241-.88,2.388-5.594,10.348-11.652,13.876a43.468,43.468,0,0,0,.688,7.562c.39,2.223.268,4.211,3.359,5.327.2.074,1.923.752,2.385.956,0,0-1.327,15.165-21.294,15.165-20.231,0-18.7-15.348-18.7-15.348.379-.162,1.662-.7,1.866-.773,3.092-1.116,2.97-3.1,3.359-5.327a42.743,42.743,0,0,0,.682-8.081,25.556,25.556,0,0,1-5.82-5.235,27.651,27.651,0,0,1-5.271-10.289l-1.039-.159a6.856,6.856,0,0,1-3.187-1.436,10.334,10.334,0,0,1-2.672-3.508,16.262,16.262,0,0,1-1.659-8.621,5.432,5.432,0,0,1,.569-2.183,3.836,3.836,0,0,1,2.759-1.835,4.066,4.066,0,0,1,3.253.952S92.99,96.326,120.758,96.326,149.057,118.979,149.057,118.979Z"/><path class="b" d="M127.6,101.113c-3.464,1.586-9.733,5.011-10.278,4.776-.376-.162-1.059-1.737-1.547-3.241a12,12,0,0,1-.558-2.31,261.879,261.879,0,0,0-20.578,18.773,4.038,4.038,0,0,0-3.391-1.084,3.8,3.8,0,0,0-.934.264c-2.1-8.7-1.58-16.057.18-21.226s5.942-11.1,11.145-13l-4.695-.955c6.84-6.885,15.838-8.462,23.648-8.223,8.338.255,14.853,3.538,18.762,8.892l4.495,3.723a19.759,19.759,0,0,1,8.934,10.855c2.553,7.137,2.256,14.66.236,19.849a3.908,3.908,0,0,0-.709-.175,4.039,4.039,0,0,0-3.4,1.09,34.074,34.074,0,0,0-15.722-16.679Z"/><path class="c" d="M150.471,120.393a1.994,1.994,0,0,1,2.805.37,4.385,4.385,0,0,1,.415,2.229,13.491,13.491,0,0,1-.187,2.774c-.6,3.293-2.251,7.259-5.916,7.916a2.017,2.017,0,0,0-1.4,2.46,2.044,2.044,0,0,0,2.46,1.4c5.789-1.038,8.554-7.563,8.99-12.81.227-2.734-.027-5.807-2.388-7.571a6.1,6.1,0,0,0-7.61.406,2.016,2.016,0,0,0,0,2.829,2.043,2.043,0,0,0,2.828,0Z"/><path class="c" d="M146.078,132.584a15.12,15.12,0,0,1-.887,4.086c-.08.245-.174.487-.245.734-.039.134-.2.461.044-.086-.129.29-.262.576-.4.859a34.918,34.918,0,0,1-3.005,4.83c-2.6,3.561-6.141,7.323-10.537,8.355-2.505.588-1.445,4.445,1.063,3.857,5.409-1.269,9.6-5.685,12.781-9.993,2.743-3.714,5-7.924,5.19-12.642.1-2.574-3.9-2.57-4,0Z"/><path class="c" d="M95.915,117.564a6.1,6.1,0,0,0-7.61-.406c-2.363,1.757-2.614,4.842-2.388,7.571.436,5.247,3.2,11.772,8.99,12.81a2.057,2.057,0,0,0,2.46-1.4,2.017,2.017,0,0,0-1.4-2.46c-3.665-.657-5.315-4.623-5.916-7.916a13.4,13.4,0,0,1-.19-2.616,5.12,5.12,0,0,1,.351-2.279,1.98,1.98,0,0,1,2.872-.478,2.055,2.055,0,0,0,2.828,0,2.016,2.016,0,0,0,0-2.829Z"/><path class="c" d="M93.673,132.4a31.812,31.812,0,0,0,6.784,15.219c3.826,4.529,8.893,7.78,14.854,8.424a2.013,2.013,0,0,0,2-2,2.045,2.045,0,0,0-2-2c-5-.54-9.172-3.774-12.274-7.551a28.123,28.123,0,0,1-5.507-13.156,2.016,2.016,0,0,0-2.46-1.4,2.046,2.046,0,0,0-1.4,2.46Z"/><path class="c" d="M142.839,89.225c9.245,4.93,11.571,18.182,8.609,27.447-.786,2.457,3.075,3.509,3.857,1.063,3.492-10.924.341-26.212-10.447-31.964-2.27-1.211-4.293,2.24-2.019,3.454Z"/><path class="c" d="M101.107,82.133c-6.329,2.428-10.758,8.678-12.731,14.982-2.182,6.973-1.659,14.625-.006,21.644.59,2.5,4.448,1.445,3.857-1.063-1.449-6.152-1.932-12.773-.173-18.918C93.5,93.726,97.043,87.957,102.17,85.99a2.058,2.058,0,0,0,1.4-2.46,2.014,2.014,0,0,0-2.46-1.4Z"/><path class="c" d="M141.081,82.765a24.382,24.382,0,0,0-15.752-9.4,38.127,38.127,0,0,0-19.6,1.767,29.436,29.436,0,0,0-10.2,6.562c-1.832,1.815,1,4.643,2.828,2.829,5.533-5.48,13.024-7.643,20.668-7.659,6.991-.016,14.261,2.082,18.6,7.923a2.061,2.061,0,0,0,2.736.718,2.015,2.015,0,0,0,.718-2.737Z"/><path class="c" d="M126.591,99.386c-2.522,1.164-4.972,2.475-7.475,3.678-.464.224-.929.452-1.4.652a3.554,3.554,0,0,0-.727.242c.363-.533,2.147,1.488,1.408-.036a10.513,10.513,0,0,1-.407-.988,12.318,12.318,0,0,1-.769-2.6,2.033,2.033,0,0,0-3.415-1.415c-6.931,5.763-13.557,11.8-19.955,18.155-1.83,1.816,1,4.644,2.828,2.828,6.4-6.349,13.024-12.392,19.956-18.154l-3.414-1.414a14.89,14.89,0,0,0,2.145,6.341c.96,1.386,2.293,1.356,3.693.778,3.269-1.35,6.346-3.136,9.555-4.617a2.016,2.016,0,0,0,.717-2.737,2.045,2.045,0,0,0-2.736-.717Z"/><path class="c" d="M132.18,104.165A32.634,32.634,0,0,1,147,119.685a2.016,2.016,0,0,0,2.736.718,2.048,2.048,0,0,0,.718-2.737A36.12,36.12,0,0,0,134.2,100.711a2.046,2.046,0,0,0-2.736.718,2.02,2.02,0,0,0,.717,2.736Z"/><path class="a" d="M144.841,457.256a3.591,3.591,0,0,0,1.425-1.676,26.839,26.839,0,0,1-1.224-3.814,148.5,148.5,0,0,1-17.177-.633q-.007,1.2-.016,2.4a21.035,21.035,0,0,0,13.227,4.573A7.354,7.354,0,0,0,144.841,457.256Z"/><path class="a" d="M100.38,451.876a27.072,27.072,0,0,1-1.2,3.7,3.589,3.589,0,0,0,1.424,1.676,7.355,7.355,0,0,0,3.766.85,21.037,21.037,0,0,0,13.227-4.573l-.017-2.4A125.4,125.4,0,0,1,100.38,451.876Z"/><path class="c" d="M99.146,445.679a25.15,25.15,0,0,1-2.771,11.253,2,2,0,0,0,3.454,2.019,29.472,29.472,0,0,0,3.317-13.272,2,2,0,0,0-4,0Z"/><path class="c" d="M115.549,446.6l.075,10.967a2,2,0,0,0,4,0l-.075-10.967a2,2,0,0,0-4,0Z"/><path class="d" d="M81.248,483.108c-.1-.133-.2-.271-.289-.413a7.749,7.749,0,0,1-.513-6.5,21.251,21.251,0,0,1,3.333-5.817q4.826-6.59,10.2-12.754c1.4-1.6,2.975-3.272,5.064-3.666a3.141,3.141,0,0,0,1.561,3.294,7.355,7.355,0,0,0,3.766.85A20.9,20.9,0,0,0,119,452.284c-.024,4.4.02,5.866,0,10.268a9.253,9.253,0,0,1-.386,3.175c-.905,2.447-3.588,3.625-5.741,5.1-5.6,3.833-8.551,10.826-14.42,14.235a15.153,15.153,0,0,1-14.008.5A8.824,8.824,0,0,1,81.248,483.108Z"/><path class="c" d="M142.3,445.679a29.458,29.458,0,0,0,3.316,13.272,2.016,2.016,0,0,0,2.737.717,2.047,2.047,0,0,0,.717-2.736,25.139,25.139,0,0,1-2.77-11.253,2,2,0,0,0-4,0Z"/><path class="c" d="M125.9,446.6l-.075,10.967a2,2,0,0,0,4,0L129.9,446.6a2,2,0,1,0-4,0Z"/><path class="d" d="M164.2,483.108q.153-.2.29-.413a7.756,7.756,0,0,0,.513-6.5,21.28,21.28,0,0,0-3.334-5.817q-4.825-6.59-10.2-12.754c-1.4-1.6-2.975-3.272-5.063-3.666a3.141,3.141,0,0,1-1.562,3.294,7.354,7.354,0,0,1-3.765.85,20.894,20.894,0,0,1-14.629-5.822c.024,4.4-.02,5.866,0,10.268a9.229,9.229,0,0,0,.386,3.175c.9,2.447,3.587,3.625,5.74,5.1,5.6,3.833,8.551,10.826,14.421,14.235a15.153,15.153,0,0,0,14.008.5A8.821,8.821,0,0,0,164.2,483.108Z"/><path class="c" d="M82.975,482.1c-3.38-4.619,2.389-10.6,5.05-14.069q2.755-3.592,5.694-7.042c1.59-1.873,3.313-4.52,5.856-5.1l-2.461-2.461a5.313,5.313,0,0,0,3.173,5.9c2.354,1.064,5.177.876,7.67.513a22.678,22.678,0,0,0,12.456-6.146L117,452.284c-.019,3.721.151,7.473-.014,11.19a4.571,4.571,0,0,1-2.372,3.857c-1.5,1.027-3.069,1.916-4.479,3.081-5.339,4.413-8.46,12.132-15.563,14.128-3.931,1.1-9.183.491-11.909-2.846-1.629-2-4.444.85-2.828,2.829,2.811,3.441,8,4.792,12.282,4.47a18.171,18.171,0,0,0,11.5-5.448c2.833-2.787,5.018-6.153,7.849-8.942,2.749-2.709,7.216-4.08,8.845-7.78,1.039-2.359.7-5.217.7-7.738-.006-2.267-.016-4.534,0-6.8a2.022,2.022,0,0,0-3.414-1.414,18.644,18.644,0,0,1-8.2,4.607,17.811,17.811,0,0,1-5.407.618c-.772-.033-3.254-.283-3.007-1.6a2.027,2.027,0,0,0-2.46-2.46c-3.2.726-5.3,3.4-7.318,5.77Q87.62,462,84.287,466.382c-3.609,4.733-9.175,11.711-4.766,17.736a2.06,2.06,0,0,0,2.737.717A2.016,2.016,0,0,0,82.975,482.1Z"/><path class="c" d="M165.924,484.118c4.41-6.026-1.157-13-4.766-17.736q-3.268-4.287-6.755-8.4c-2.062-2.425-4.2-5.206-7.469-5.948a2.027,2.027,0,0,0-2.46,2.46c.247,1.319-2.218,1.567-3.006,1.6a17.679,17.679,0,0,1-5.407-.618,18.674,18.674,0,0,1-8.2-4.607,2.023,2.023,0,0,0-3.414,1.414c.01,1.985,0,3.969,0,5.953a40.694,40.694,0,0,0,.187,6.914c.769,4.492,5.241,5.8,8.273,8.447,3,2.618,5.213,5.977,7.9,8.887,2.905,3.142,6.481,5.617,10.782,6.3,4.794.759,10.791-.305,14.021-4.259a2.061,2.061,0,0,0,0-2.829,2.015,2.015,0,0,0-2.829,0c-2.361,2.891-6.784,3.765-10.329,3.2-3.664-.583-6.494-2.7-8.941-5.374-2.428-2.655-4.477-5.651-7.1-8.13a27.576,27.576,0,0,0-4.354-3.269c-1.19-.746-2.706-1.57-3.3-2.926a9.771,9.771,0,0,1-.318-3.793q0-1.5,0-3c.006-2.04.012-4.08,0-6.12l-3.415,1.415a22.687,22.687,0,0,0,12.456,6.146c2.413.352,5.128.538,7.431-.413a5.344,5.344,0,0,0,3.412-6l-2.46,2.461c2.481.563,4.149,3.091,5.7,4.919q3.009,3.537,5.846,7.22c2.66,3.469,8.429,9.45,5.049,14.069a2.014,2.014,0,0,0,.718,2.736A2.046,2.046,0,0,0,165.924,484.118Z"/><path class="a" d="M123.04,277.676c-15.717.111-31.729.224-39.737.375.855,15.164,3.007,47.719,4.523,72.9,1.749,29.046,2.465,93.4,2.857,99.882,4.342,1.448,21.228,1.55,31.3-.375,0,0,.271-.051.55-.1,8.268,1.718,27.627,1.924,31.969.476.392-6.483,1.109-70.836,2.857-99.882,1.485-24.664,3.037-58.324,4.037-73.657C154.787,277.449,139.068,277.562,123.04,277.676Z"/><path class="a" d="M67.087,273.24c.057,1.79.037,4.367.021,7.017-.108,6.006-2.041,11.806-3.394,17.66s-2.1,11.258.09,16.867a12.411,12.411,0,0,0,1.662,3.049c1.541,2.008,4.668,3.909,7.289,2.011.411-.3.678-1.582.316-3.164-1.309-5.73-1.013-5.407-1.22-11.055a18.016,18.016,0,0,1,.407-4.881,14.821,14.821,0,0,1,1.943,2.124c.408.474,1.271,1.3,1.846,1.844a1.825,1.825,0,0,0,3.074-1.459A125.853,125.853,0,0,0,76.1,284.12a65.024,65.024,0,0,0,.33-7.127"/><path class="c" d="M65.087,273.24c.079,2.8.14,5.642-.037,8.436a50.5,50.5,0,0,1-1.539,8.786c-1.386,5.657-3.223,11.413-3.088,17.3.116,5.075,1.807,11.62,6.771,14.052,2.169,1.063,5.287,1.242,7.094-.675,1.827-1.939.639-5.181.181-7.408a27.072,27.072,0,0,1-.531-5.094,36.146,36.146,0,0,1,.248-7.362l-3.342.882c2.018,1.7,3.558,5.171,6.606,5.046a3.866,3.866,0,0,0,3.468-2.571c.532-1.59.015-3.613-.166-5.24-.431-3.871-1.02-7.726-1.791-11.544q-.288-1.426-.608-2.844a8.421,8.421,0,0,1-.109-2.7c.13-1.766.228-3.538.181-5.309-.068-2.57-4.068-2.58-4,0,.074,2.821-.668,5.861-.037,8.6q1.087,4.725,1.808,9.523.356,2.372.609,4.757a15.232,15.232,0,0,0,.417,3.38c-.037-.069.194.158.125-.066-.117-.376-.949-.911-1.236-1.206-.841-.863-1.513-1.874-2.439-2.653-1.036-.871-3.057-.731-3.343.883a41.844,41.844,0,0,0-.281,10.909,38.608,38.608,0,0,0,.845,4.983,9.926,9.926,0,0,1,.347,1.9c0,.169-.034.354-.021.521l-.037.135c-.095.3-.022.193.219-.318.082.138-1.018.286-1.121.282a3.182,3.182,0,0,1-1.23-.348c-1.93-.926-2.984-2.971-3.64-4.909a19.877,19.877,0,0,1-.966-7.36c.244-5.246,1.943-10.33,3.147-15.407a54.386,54.386,0,0,0,1.442-8.689c.2-2.869.136-5.8.054-8.672-.074-2.568-4.074-2.579-4,0Z"/><path class="a" d="M176.654,225.1q-.553-1.232-1.092-2.46c-1.3-2.949-1.018-3.6-1.018-7.081,0-1.123.05-3.016.211-5.069.459.411,1.559,1.653,1.942,2.069,1.485,1.617,2.927,3.043,4.413,4.659a27.349,27.349,0,0,0,6.25,5.051,9.239,9.239,0,0,0,7.721,1.083,6.168,6.168,0,0,0,3.348-3.071,25.719,25.719,0,0,1-.643,7.184c-1.261,6.032-4.047,12.376-9.625,14.994C182.809,237.935,179.547,231.532,176.654,225.1Z"/><path class="e" d="M174.755,210.276c-.161,2.053-.211,3.946-.211,5.07,0,3.477-.282,4.131,1.018,7.08q.54,1.227,1.092,2.46a67.409,67.409,0,0,0,6.4,11.754,16.3,16.3,0,0,1-13.052-1.534,14.472,14.472,0,0,1-5.051-4.172l-3.178-.231c-.278,7.426-.264,15.523-.511,18.347-.354,4.051-.119,20.975-.106,27.874-9.071-.252-69.881.055-77.39.3,0-2.609-.071-5.358-.138-10.739-6.478-1.345-13.882-2.027-20.263-3.239v-.377c0-4.341,2.323-54.935,2.84-59.915.669-6.454,1.033-15.042,4.048-20.9,2.477-4.808,7.917-8.142,12.51-10.585a116.934,116.934,0,0,1,19.221-7.851h0c-.04-.648,2.758-5.8,3.665-8.145.06-.156.14-.332.3-.379s.349.075.487.194c1.552,1.333,10.068,8.27,10.982,9.389.314,1.058.857,2.456,1.77,5.325.736,1.747,2.059,5,2.767,6.527,1.018-2.135,2.345-5.286,3.4-7.821.509-1.55.918-3.285,1.14-4.031.913-1.119,9.43-8.056,10.981-9.389.139-.119.312-.246.487-.194s.241.223.3.379c.866,2.235,3.453,7.032,3.653,8.029a137.218,137.218,0,0,1,17.378,5.7Z"/><path class="a" d="M176.366,203.747c-2.61-4.185-8.444-5.246-10.993-8.974-.6-.877-1.01-1.868-1.578-2.765-.944-1.494-2.819-2.65-4.064-3.906-2.262-2.284-4.931-4.475-6.555-7.249a4.319,4.319,0,0,1,1.047-4.93c2.163-1.718,6.622,2.325,5.2-.835a2.631,2.631,0,0,1-1.2-1.5c-.5-1.631.759-2.915,2.247-3.75,1.858-1.042,4.04-1.961,5.983-2.836,1.712-.771,3.749-1.466,5.4-.561a5.944,5.944,0,0,1,1.933,2.039,42.438,42.438,0,0,1,6.342,15.471,53.025,53.025,0,0,0,3.122,9.881q6.629,10.082,12.665,20.535a14.805,14.805,0,0,1,2.184,6.111,2.3,2.3,0,0,1-.3.966,6.123,6.123,0,0,1-2.615,1.91,9.241,9.241,0,0,1-7.722-1.083,27.392,27.392,0,0,1-6.25-5.051l-6.455-6.728a7.427,7.427,0,0,0,3.2-3.288l-1.589-3.453"/><path class="c" d="M181.417,194.837q6.624,10.086,12.665,20.536c1.288,2.228,4.746.216,3.454-2.019q-6.039-10.446-12.665-20.535c-1.408-2.143-4.873-.142-3.454,2.018Z"/><path class="c" d="M178.381,224.089c-.894-2-1.855-3.853-1.863-6-.009-2.536.048-5.075.237-7.6l-3.414,1.414c4.087,3.849,7.316,8.456,12.107,11.535,4.722,3.035,11.745,3.585,14.708-2.148l-3.727-1.01a28.458,28.458,0,0,1-2.331,12.5,14.88,14.88,0,0,1-6.946,7.951l2.423.312c-5.259-4.514-8.391-10.738-11.194-16.954a2.015,2.015,0,0,0-2.736-.718,2.049,2.049,0,0,0-.718,2.736c2.936,6.512,6.314,13.038,11.82,17.765a2.1,2.1,0,0,0,2.423.312,18.267,18.267,0,0,0,8.382-9.386,32.237,32.237,0,0,0,2.877-14.519c-.116-1.849-2.757-2.888-3.727-1.009-2.389,4.622-7.926,1.841-10.94-.477-3.621-2.785-6.285-6.605-9.592-9.719a2.026,2.026,0,0,0-3.415,1.414,74.844,74.844,0,0,0-.229,8.161c.094,2.693,1.319,5.045,2.4,7.458a2.016,2.016,0,0,0,2.737.718A2.048,2.048,0,0,0,178.381,224.089Z"/><path class="c" d="M182.211,235.018a14.361,14.361,0,0,1-9.769-.675,23.993,23.993,0,0,1-3.754-2.212c-.242-.169.248.207.028.025-.1-.083-.2-.166-.3-.252-.187-.166-.367-.342-.542-.521-.522-.532-1.013-1.095-1.508-1.652-1.716-1.926-4.536.911-2.828,2.829a20.239,20.239,0,0,0,3.062,2.978,22.494,22.494,0,0,0,4.461,2.539,18.492,18.492,0,0,0,12.21.8c2.475-.695,1.423-4.555-1.063-3.857Z"/><path class="c" d="M94.281,15.014c4.384,12.472,8.314,25.108,12.544,37.633q2.189,6.482,4.443,12.939c.846,2.414,4.712,1.375,3.857-1.063-5.027-14.348-9.707-28.814-14.5-43.24-.814-2.449-1.628-4.9-2.484-7.333-.848-2.412-4.713-1.374-3.857,1.064Z"/><path class="c" d="M81.358,279c.759,13.265,1.629,26.524,2.468,39.784.858,13.566,1.828,27.134,2.444,40.714.527,11.626.853,23.262,1.145,34.9q.435,17.327.752,34.656c.138,6.951.194,13.912.472,20.86.013.309.026.618.044.926a2.077,2.077,0,0,0,1.468,1.929,25.388,25.388,0,0,0,5.7.883c2.77.223,5.555.282,8.333.266a102.689,102.689,0,0,0,18.329-1.524c2.527-.475,1.457-4.331-1.063-3.857a96.651,96.651,0,0,1-17.266,1.381c-2.686.014-5.377-.041-8.056-.244a19.518,19.518,0,0,1-4.913-.762l1.468,1.928c-.357-6.038-.324-12.116-.444-18.161q-.334-16.842-.712-33.683c-.283-11.881-.6-23.762-1.091-35.637-.531-12.911-1.426-25.805-2.239-38.7-.883-13.993-1.8-27.985-2.625-41.981q-.108-1.836-.214-3.673c-.147-2.559-4.148-2.576-4,0Z"/><path class="c" d="M159.4,277.3c-.839,12.9-1.444,25.823-2.119,38.736-.724,13.873-1.612,27.739-2.275,41.615-.559,11.694-.891,23.4-1.19,35.1q-.456,17.814-.781,35.63c-.142,7.162-.2,14.332-.483,21.489-.013.323-.027.646-.046.968l1.469-1.928a19.623,19.623,0,0,1-5.331.718c-2.879.17-5.767.2-8.65.159a91.086,91.086,0,0,1-16.925-1.354c-2.513-.513-3.588,3.342-1.063,3.857a96.767,96.767,0,0,0,17.988,1.5c2.971.04,5.947.011,8.913-.175a25.514,25.514,0,0,0,6.131-.845,2.074,2.074,0,0,0,1.468-1.929c.368-6.205.331-12.452.454-18.665q.345-17.409.741-34.819c.292-11.986.617-23.972,1.134-35.95.569-13.166,1.445-26.319,2.138-39.479.72-13.69,1.378-27.385,2.2-41.07q.108-1.777.223-3.556c.167-2.57-3.834-2.56-4,0Z"/><path class="c" d="M120.723,323.983c-.473,5.2-.413,10.463-.408,15.68,0,6.272.1,12.543.156,18.815.064,7.015.017,14.031,0,21.046q-.03,14.567-.055,29.134-.021,13.848-.012,27.7c.007,4.587-.265,9.295.106,13.873a2.134,2.134,0,0,0,.6,1.546c1.957,1.648,4.8-1.167,2.828-2.829a2.116,2.116,0,0,1,.569,1.307.873.873,0,0,0-.012-.209c0-.233-.015-.466-.021-.7-.018-.829-.026-1.658-.033-2.487-.026-2.887-.033-5.775-.038-8.662q-.029-13.375,0-26.751.019-14.648.054-29.3c.013-6.766.056-13.533.026-20.3-.052-11.613-.526-23.267.028-34.873.048-1,.109-2,.2-2.993a2.016,2.016,0,0,0-2-2,2.042,2.042,0,0,0-2,2Z"/><path class="c" d="M106.065,152.113a42.375,42.375,0,0,1-.322,4.474,1.993,1.993,0,0,0,.586,1.414,2,2,0,0,0,2.828,0l.313-.4a1.991,1.991,0,0,0,.273-1.01,42.375,42.375,0,0,0,.322-4.474,2,2,0,0,0-4,0Z"/><path class="c" d="M133.339,152.113a42.774,42.774,0,0,0,.373,4.864,1.507,1.507,0,0,0,.173.771,1.489,1.489,0,0,0,.413.643,2,2,0,0,0,2.828,0,1.909,1.909,0,0,0,.586-1.414,42.774,42.774,0,0,1-.373-4.864,2.076,2.076,0,0,0-.585-1.414,2,2,0,0,0-3.415,1.414Z"/><path class="c" d="M160.226,223.346c-.719,7.984-.54,16.009-.852,24.012-.24,6.126-.221,12.227-.126,18.361.06,3.859.144,7.718.147,11.578,0,2.573,4,2.578,4,0-.005-7.2-.239-14.391-.258-21.587-.016-5.96.326-11.925.45-17.885.1-4.828.206-9.668.639-14.479a2.015,2.015,0,0,0-2-2,2.042,2.042,0,0,0-2,2Z"/><path class="c" d="M80.812,199.562a119.545,119.545,0,0,1,.538,12.367c.1,6.015.118,12.032.119,18.048,0,8.713-.01,17.424.072,26.136.067,7.114.225,14.228.229,21.341,0,2.574,4,2.578,4,0,0-9.986-.287-19.971-.314-29.956-.031-11.161.076-22.322-.074-33.483a135.609,135.609,0,0,0-.57-14.453,2.063,2.063,0,0,0-2-2,2.012,2.012,0,0,0-2,2Z"/><path class="c" d="M101.456,161.9a113.092,113.092,0,0,0-17.988,7.171c-5.053,2.533-10.236,5.528-13.657,10.148-3.477,4.7-4.272,11.05-4.9,16.691-.348,3.149-.668,6.311-.876,9.473-.913,13.873-1.458,27.777-2.063,41.665-.232,5.333-.6,10.69-.607,16.029,0,2.574,4,2.578,4,0,.008-4.349.294-8.71.479-13.053q.487-11.452,1.043-22.9c.313-6.51.626-13.021,1.011-19.527.095-1.6.184-3.2.343-4.788.567-5.672.827-11.494,2.661-16.939,2.024-6.009,7.2-9.426,12.556-12.294a103.841,103.841,0,0,1,19.058-7.818c2.458-.741,1.41-4.6-1.064-3.857Z"/><path class="c" d="M141.373,165.636a138.784,138.784,0,0,1,17.394,5.707,2.017,2.017,0,0,0,2.461-1.4,2.045,2.045,0,0,0-1.4-2.46,138.891,138.891,0,0,0-17.394-5.707c-2.5-.594-3.571,3.262-1.064,3.857Z"/><path class="c" d="M123.687,175.734a65.389,65.389,0,0,1-2.862-6.97c-.365-1.119-.753-2.231-1.131-3.347a5.411,5.411,0,0,0-1.093-2.193,98.8,98.8,0,0,0-8.463-7.23c-1.28-1.062-3.155-3.27-4.954-2.513-1.314.552-1.567,1.971-2.055,3.018s-1,2.083-1.505,3.123c-.659,1.36-2,3.291-1.527,4.875a21.626,21.626,0,0,0,2.605,4.742q1.15,1.874,2.386,3.693a18.088,18.088,0,0,0,2.51,3.32,2.614,2.614,0,0,0,2.983.325,4.837,4.837,0,0,0,1.662-2.291q1.238-2.415,2.506-4.815c1.2-2.274-2.248-4.3-3.454-2.019q-.822,1.553-1.63,3.113-.359.692-.713,1.385l-.329.641c-.091.178-.557.76-.164.579l1.009-.273.076.012.883.514a11.465,11.465,0,0,1-1.8-2.389q-1-1.462-1.943-2.967c-.948-1.509-1.865-3.038-2.7-4.613a2.826,2.826,0,0,0-.13-.265c-.2-.3.126.446.081.189.105.591-.126,1.211.124.454.019-.057.214-.51.046-.12.08-.185.164-.367.248-.55.2-.432.405-.86.612-1.289.465-.963.939-1.922,1.4-2.888.2-.411.388-.823.573-1.239.111-.247.217-.5.323-.746l.18-.428q.182-.438-.071.151l-1.414.586.257.033-1.009-.273c-.269-.189.133.11.212.176l.479.4q.667.556,1.336,1.11,1.766,1.465,3.528,2.936a41.88,41.88,0,0,1,5.251,4.614l-.514-.882a96.667,96.667,0,0,0,4.739,12.329,2.016,2.016,0,0,0,2.737.717,2.046,2.046,0,0,0,.717-2.736Z"/><path class="c" d="M123.687,177.753c.983-2.075,1.877-4.191,2.767-6.307a52.886,52.886,0,0,0,1.972-6.022l-.514.882a42.022,42.022,0,0,1,5.251-4.614q1.72-1.44,3.448-2.869.678-.564,1.357-1.128l.539-.45c.082-.069.492-.374.211-.176l-1.009.273.257-.033-1.414-.586q-.252-.589-.071-.151l.08.189q.183.443.376.88c.2.451.409.9.621,1.344.458.966.932,1.925,1.4,2.888.207.429.413.857.612,1.289.084.183.168.365.248.55-.1-.235-.038-.113.02.053.26.739-.049.4.157-.409-.078.307.223-.425.095-.211-.059.1-.1.209-.151.309-.842,1.571-1.749,3.1-2.7,4.613q-.944,1.5-1.943,2.967a11.535,11.535,0,0,1-1.8,2.389l.882-.514.076-.012,1.01.273c.4.185.026-.207-.08-.413l-.332-.648q-.4-.773-.794-1.544-.807-1.561-1.631-3.113c-1.205-2.276-4.659-.257-3.453,2.019q1.064,2.008,2.1,4.031c.74,1.44,1.365,3.384,3.293,3.4,1.574.014,2.373-1.326,3.2-2.454.714-.979,1.393-1.983,2.055-3,1.17-1.8,2.311-3.625,3.327-5.514a7.634,7.634,0,0,0,.711-1.556,4.018,4.018,0,0,0-.553-2.606c-.827-1.9-1.805-3.731-2.67-5.614-.232-.5-.279-.618-.439-1a2.574,2.574,0,0,0-1.964-1.812c-1.153-.156-1.938.557-2.752,1.239-2.827,2.367-5.694,4.688-8.476,7.11-.557.486-1.135.965-1.65,1.5a6.4,6.4,0,0,0-1.292,3.053,58.227,58.227,0,0,1-3.829,9.492,2.055,2.055,0,0,0,.718,2.736,2.016,2.016,0,0,0,2.736-.717Z"/><path class="c" d="M119.96,177.618c0,12.646.287,25.294.516,37.937q.406,22.549.845,45.1c.094,5.3.2,10.6.235,15.9.017,2.573,4.017,2.579,4,0-.076-11.5-.363-23.007-.583-34.509-.292-15.352-.6-30.7-.826-46.057-.091-6.124-.186-12.248-.187-18.372,0-2.574-4-2.578-4,0Z"/><path class="c" d="M169.424,165.551c-4.88-8.027-9.532-16.2-14.507-24.168-1.36-2.179-4.822-.173-3.454,2.019,4.975,7.969,9.627,16.14,14.507,24.168,1.335,2.2,4.8.189,3.454-2.019Z"/><path class="c" d="M162.638,168.405c-4.085-5.925-7.508-12.272-11.592-18.2a2.052,2.052,0,0,0-2.737-.717,2.018,2.018,0,0,0-.717,2.736c4.084,5.925,7.507,12.272,11.592,18.2a2.051,2.051,0,0,0,2.736.717,2.018,2.018,0,0,0,.718-2.736Z"/><path class="c" d="M181.683,182.136a45.3,45.3,0,0,0-3.879-10.592c-1.614-3.133-3.659-7.419-7.693-7.533a12.806,12.806,0,0,0-5.464,1.571,56.538,56.538,0,0,0-5.288,2.525,6.342,6.342,0,0,0-3.2,3.655,4.569,4.569,0,0,0,1.757,4.776c3.212,2.35,7.608-.409,10.466-2.117,2.208-1.319.2-4.778-2.018-3.454-.645.386-5.951,3.732-6.349,2.022-.219-.935,2.171-1.868,2.722-2.144,1.57-.786,3.183-1.523,4.8-2.2,1.281-.536,2.831-1.117,3.874.1a23.945,23.945,0,0,1,2.674,4.314,41.012,41.012,0,0,1,3.739,10.139c.576,2.508,4.434,1.447,3.857-1.063Z"/><path class="c" d="M158.6,174.273c-2.253,2.486-1.494,7.154,2.042,7.972a8.79,8.79,0,0,0,4.464-.36,41.764,41.764,0,0,0,5.083-2.03,2.007,2.007,0,0,0,.718-2.736,2.06,2.06,0,0,0-2.737-.717c-.335.15-.67.3-1.006.447l-.5.215c.386-.166-.09.037-.172.071-.615.253-1.236.493-1.866.705a14.73,14.73,0,0,1-1.7.473c-.13.027-.262.048-.393.074-.427.082.42-.029.029-.007a6.883,6.883,0,0,1-.76.021c-.08,0-.5-.035-.11,0,.372.031,0-.012-.088-.035s-.425-.164-.088-.01.009-.014-.063-.047c-.355-.166.2.214.094.091a1.541,1.541,0,0,0-.209-.2c-.116-.088.272.415.061.056s.04.244.013.067a2.4,2.4,0,0,0-.1-.337c-.13-.418-.016.224,0,.058.011-.118-.014-.246-.012-.366,0-.078.052-.517,0-.159s.024-.077.043-.149c.025-.1.2-.438.029-.153-.176.3.042-.053.074-.121.194-.417-.253.27-.017.01a2,2,0,0,0-2.829-2.828Z"/><path class="c" d="M170.569,181.291a23.994,23.994,0,0,1-3.011,1.6l.478-.2c-.935.394-1.9.705-2.871,1.007a2,2,0,1,0,1.063,3.857,33.41,33.41,0,0,0,3.551-1.3,24.61,24.61,0,0,0,2.809-1.518,2,2,0,0,0-2.019-3.454Z"/><path class="c" d="M158.044,173.936c-2.014-.617-4.249-.733-5.761.992a6.553,6.553,0,0,0-1.5,5.308c.315,1.893,1.818,3.56,3.067,4.942,1.412,1.562,2.975,3,4.492,4.463,1.431,1.377,3.095,2.392,4.079,4.164a14.079,14.079,0,0,0,3.516,4.532c2.739,2.168,6.327,3.284,8.56,6.054a2.013,2.013,0,0,0,2.829,0,2.048,2.048,0,0,0,0-2.828c-1.923-2.385-4.738-3.653-7.289-5.225A10.231,10.231,0,0,1,167,193.763c-1.064-1.47-1.626-3.132-2.951-4.434-2.414-2.372-5.086-4.454-7.367-6.98-.793-.878-2.141-2.12-1.984-3.415.048-.4.236-1.183.619-1.4.361-.2,1.2.116,1.665.26,2.466.756,3.521-3.1,1.063-3.857Z"/><path class="c" d="M210.657,232.318c2.983-10.017,8.227-19.34,14.059-27.957a118.176,118.176,0,0,1,19.735-23,47.523,47.523,0,0,1,5.09-3.927,24.3,24.3,0,0,1,4.4-2.35,2.041,2.041,0,0,0,1.4-2.46c-3.244-11.225-4.121-23.24-4.471-34.864-.4-13.185.06-26.685,2.917-39.606,1.219-5.51,2.808-11,5.946-15.694a2.021,2.021,0,0,0-1.195-2.938,29.17,29.17,0,0,1-5.067-2.345,68.227,68.227,0,0,1-6.116-3.912,126.471,126.471,0,0,1-13.582-11.337,169.055,169.055,0,0,1-26.774-32.105,91.845,91.845,0,0,1-9.64-19.385,2.074,2.074,0,0,0-2.461-1.4c-13.622,2.046-27.573,2.2-41.312,1.65a248.96,248.96,0,0,1-42.649-5.049A98.744,98.744,0,0,1,92.842.234a2.076,2.076,0,0,0-2.736.718A130.612,130.612,0,0,1,37.388,44.611a123.98,123.98,0,0,1-20.064,7.1,2.022,2.022,0,0,0-1.468,1.929,190.438,190.438,0,0,1-1.548,34.334,192.134,192.134,0,0,1-7.532,35.212,82.718,82.718,0,0,1-6.5,15.352,1.968,1.968,0,0,0,0,2.019C6.763,149.01,11,159.138,14.415,169.149a192.157,192.157,0,0,1,8.266,34.025,111.094,111.094,0,0,1,1.308,15.96,2.024,2.024,0,0,0,2,2c10.1-.214,20.1,1.5,29.851,3.982,2.5.634,3.56-3.223,1.063-3.857-10.08-2.561-20.484-4.346-30.914-4.125l2,2c-.02-10.634-1.852-21.326-4.225-31.662a173.423,173.423,0,0,0-11.271-33.934,78.628,78.628,0,0,0-8.759-15v2.019c5.413-9.551,8.505-20.437,10.884-31.089a231.294,231.294,0,0,0,5.126-37.02,165.981,165.981,0,0,0,.112-18.808l-1.469,1.928A134.069,134.069,0,0,0,81.632,17.682,129.961,129.961,0,0,0,93.56,2.97l-2.737.718c11.66,5.029,24.5,7.221,37.014,8.849a287,287,0,0,0,45.108,2.294A191.238,191.238,0,0,0,195.957,12.9l-2.46-1.4c4.495,13.212,12.545,25.1,21.295,35.845a162.876,162.876,0,0,0,28.939,28.211c4.211,3.12,8.739,6.128,13.739,7.821l-1.2-2.938c-2.859,4.272-4.542,9.324-5.788,14.274a121.932,121.932,0,0,0-3.02,19.227,206.735,206.735,0,0,0,.638,41.334,112.464,112.464,0,0,0,3.375,18.411l1.4-2.46a33.938,33.938,0,0,0-9.512,5.838,89.29,89.29,0,0,0-10.247,9.982,141.945,141.945,0,0,0-19.325,27.643,90.49,90.49,0,0,0-6.992,16.56c-.736,2.473,3.123,3.529,3.857,1.064Z"/><path class="c" d="M77.383,89.189Q58.924,77.212,40.423,65.3q-5.591-3.614-11.176-7.231c-2.167-1.4-4.174,2.058-2.019,3.454Q46.717,74.146,66.234,86.731q4.568,2.954,9.13,5.912c2.166,1.405,4.173-2.056,2.019-3.454Z"/><path class="c" d="M187.372,20.88C177.717,35.6,168.591,50.661,159.32,65.62q-3.88,6.262-7.784,12.51c-1.37,2.188,2.089,4.2,3.454,2.019,9.7-15.488,19.2-31.1,28.962-46.543,2.267-3.585,4.547-7.161,6.874-10.707,1.416-2.159-2.046-4.165-3.454-2.019Z"/><path class="c" d="M243.678,84.905q-31.28,7.154-62.338,15.248-8.094,2.094-16.17,4.252c-2.484.664-1.43,4.524,1.064,3.857q30.6-8.185,61.42-15.5,8.535-2.035,17.087-4c2.509-.574,1.447-4.431-1.063-3.857Z"/><path class="c" d="M240.116,167.274q-30-14.1-60.474-27.187-8.123-3.48-16.289-6.854a2.013,2.013,0,0,0-2.46,1.4,2.049,2.049,0,0,0,1.4,2.46c20.039,8.259,39.858,17.063,59.558,26.1q8.142,3.734,16.249,7.541c2.316,1.089,4.349-2.358,2.019-3.453Z"/><path class="c" d="M54.909,188.181c-7.267,6.645-14.461,13.378-21.423,20.342-1.823,1.823,1.005,4.652,2.828,2.829,6.963-6.965,14.156-13.7,21.423-20.343,1.9-1.74-.931-4.563-2.828-2.828Z"/><path class="c" d="M14.075,139.485c15.658-2.883,31.421-5.21,47.169-7.534q7.559-1.114,15.121-2.207a2.013,2.013,0,0,0,1.4-2.461,2.051,2.051,0,0,0-2.46-1.4c-16.881,2.444-33.766,4.9-50.592,7.7q-5.858.975-11.7,2.04c-2.528.465-1.457,4.321,1.064,3.857Z"/><path class="c" d="M84.062,280.038c9.953-.174,19.91-.224,29.864-.3q17.3-.126,34.6-.267c4.289-.042,8.578-.08,12.866-.177,2.57-.059,2.579-4.059,0-4-9,.2-18.008.229-27.01.3q-17.7.133-35.4.267c-4.975.045-9.951.091-14.926.178-2.571.044-2.58,4.044,0,4Z"/><path class="c" d="M168.452,68.086l-6.8,14.247a2.054,2.054,0,0,0,.718,2.736,2.016,2.016,0,0,0,2.736-.717l6.8-14.247a2.055,2.055,0,0,0-.718-2.737,2.018,2.018,0,0,0-2.736.718Z"/><path class="c" d="M69.865,101.179c-5.16-2.466-10.413-4.757-15.749-6.815a2.015,2.015,0,0,0-2.46,1.4,2.045,2.045,0,0,0,1.4,2.46c5.015,1.934,9.944,4.094,14.793,6.412a2.054,2.054,0,0,0,2.736-.717,2.019,2.019,0,0,0-.717-2.737Z"/><path class="c" d="M185.807,107.3l-13.793,7.811a2,2,0,1,0,2.019,3.454l13.793-7.811a2,2,0,0,0-2.019-3.454Z"/><path class="a" d="M61.839,272.926a3.206,3.206,0,0,0,2.3,2.6c2.652.6,14.963,3.028,18.569,3.7.171-2.527.468-9.934.542-12.527-2.428-.569-16.741-2.666-22.222-3.111C61.247,266.26,61.474,269.792,61.839,272.926Z"/><path class="c" d="M59.911,273.458c.437,2.487,2.488,3.749,4.761,4.23,1.856.393,3.716.765,5.576,1.137,3.971.8,7.944,1.588,11.925,2.335a2.036,2.036,0,0,0,2.532-1.929c.277-4.168.42-8.352.542-12.527a2.022,2.022,0,0,0-1.468-1.928c-3.314-.76-6.745-1.144-10.106-1.622-4.2-.6-8.418-1.211-12.648-1.561a2.006,2.006,0,0,0-2,2c.256,3.113.46,6.23.814,9.333a2.061,2.061,0,0,0,2,2,2.011,2.011,0,0,0,2-2c-.354-3.1-.558-6.22-.814-9.333l-2,2c3.968.329,7.923.894,11.864,1.457,3.269.468,6.6.844,9.826,1.583L81.247,266.7c-.122,4.175-.265,8.359-.542,12.527l2.531-1.928c-3.625-.681-7.243-1.4-10.861-2.123q-2.752-.548-5.5-1.112c-1.245-.257-2.846-.2-3.105-1.673a2.016,2.016,0,0,0-2.46-1.4A2.044,2.044,0,0,0,59.911,273.458Z"/><path class="d" d="M153.052,204.57a4.3,4.3,0,0,1-.165-5.341,3.991,3.991,0,0,1,5.266-.277c2,1.65,4.512,4.527,6.706,5.355a7.058,7.058,0,0,0,4.9.063,3.013,3.013,0,0,0,1.369-3.811,38.659,38.659,0,0,0-1.331-4.213c-.5-1.151-.517-4,1.829-4.933a4.468,4.468,0,0,1,5.1.831c3.576,4.36,3.307,11.747.408,15.79s-9.8,5.981-14.487,4.388C158.166,210.9,153.8,205.434,153.052,204.57Z"/><path class="c" d="M154.466,203.156a2.179,2.179,0,0,1,.043-2.728,2.073,2.073,0,0,1,2.481.15c2.482,1.954,4.431,4.653,7.522,5.721,2.779.959,6.468.69,8.133-2.038s-.208-6.087-1.042-8.783a2.027,2.027,0,0,1,.414-2.01,2.79,2.79,0,0,1,3.011-.093,6.712,6.712,0,0,1,1.719,3.059,12.783,12.783,0,0,1,.6,4.164,10.421,10.421,0,0,1-2.406,6.951,11.891,11.891,0,0,1-7,3.329,10.538,10.538,0,0,1-8.218-2.4,37.579,37.579,0,0,1-5.263-5.318c-1.674-1.96-4.492.88-2.828,2.828,3.974,4.651,8.757,9.3,15.326,8.977a16.825,16.825,0,0,0,9.784-3.641,13.338,13.338,0,0,0,4.464-8.868,15.717,15.717,0,0,0-1.992-10.138,6.408,6.408,0,0,0-3.83-3.1,6.9,6.9,0,0,0-5.781,1.078,5.686,5.686,0,0,0-2.084,4.384c-.052,1.569.678,2.885,1.088,4.357.3,1.091,1.323,2.8.133,3.606.285-.192-.329.083-.543.11a6.065,6.065,0,0,1-.924.009,4.909,4.909,0,0,1-2.388-.667c-3.44-2.044-5.6-6.575-10.177-5.916-4.877.7-5.8,6.374-3.076,9.805a2.011,2.011,0,0,0,2.828,0A2.048,2.048,0,0,0,154.466,203.156Z"/><path class="c" d="M116.649,141.476a11.583,11.583,0,0,0,5.571,1.3,9.21,9.21,0,0,0,5.748-1.749,2,2,0,0,0,.586-1.414,2.037,2.037,0,0,0-.586-1.415,2.009,2.009,0,0,0-1.414-.585,2.345,2.345,0,0,0-1.414.585c.694-.541.008-.033-.21.081-.169.089-.609.228.033,0-.151.052-.3.114-.448.163-.411.132-.844.166-1.253.286.2-.06.356-.043.049-.013-.122.013-.246.023-.369.031-.3.019-.594.027-.891.025-.266,0-.532-.011-.8-.029q-.183-.012-.366-.03l-.208-.023c-.158-.019-.091-.011.2.026-.08-.079-.479-.085-.6-.111-.192-.043-.382-.092-.571-.149-.164-.049-.323-.107-.485-.163-.438-.15.435.207.037.02q-.3-.143-.595-.3a2,2,0,1,0-2.018,3.454Z"/><path class="c" d="M120.913,128.727a24.547,24.547,0,0,1,.58,2.653l-.071-.532a1.659,1.659,0,0,1,.01.366l.071-.532a.845.845,0,0,1-.04.165l.2-.478a.61.61,0,0,1-.059.106l.313-.405a.506.506,0,0,1-.087.086l.405-.313a1.685,1.685,0,0,1-.21.111l.478-.2a1.561,1.561,0,0,1-.354.1l.531-.071a1.418,1.418,0,0,1-.332,0l.532.071c-.126-.017-.249-.048-.374-.064a1.506,1.506,0,0,0-.8-.036,1.486,1.486,0,0,0-.743.237,2,2,0,0,0-.718,2.737l.313.4a2,2,0,0,0,.883.515c.342.046.674.131,1.022.146a3.366,3.366,0,0,0,1.579-.386,2.419,2.419,0,0,0,1.3-1.577,3.682,3.682,0,0,0-.013-1.628c-.144-.854-.342-1.7-.561-2.54a2,2,0,0,0-2.461-1.4,2.022,2.022,0,0,0-1.2.92,2.1,2.1,0,0,0-.2,1.541Z"/><path class="c" d="M107.5,121.044c-.443,1.439-.154,4.751,2.573,5.033,3.605-.021,3.8-4.026,2.583-5.908C111.666,118.627,108.744,117.986,107.5,121.044Z"/><path class="c" d="M136.371,121.044c.443,1.44.154,4.751-2.573,5.033-3.6-.022-3.8-4.026-2.584-5.908C132.208,118.627,135.129,117.986,136.371,121.044Z"/></svg>